<svg xmlns="http://www.w3.org/2000/svg" viewBox="0 0 200 160" fill="none">
  <defs>
    <linearGradient id="bossGrad" x1="0" y1="0" x2="0" y2="1">
      <stop offset="0" stop-color="#7E57C2"/>
      <stop offset="1" stop-color="#1A1030"/>
    </linearGradient>
  </defs>
  <path d="M100 8 L168 44 L150 120 L100 152 L50 120 L32 44 Z" fill="url(#bossGrad)" stroke="#B39DDB" stroke-width="3"/>
  <path d="M100 8 L100 60" stroke="#B39DDB" stroke-width="2"/>
  <path d="M32 44 L100 70 L168 44" stroke="#B39DDB" stroke-width="2"/>
  <circle cx="74" cy="74" r="11" fill="#FF1744"/>
  <circle cx="126" cy="74" r="11" fill="#FF1744"/>
  <circle cx="74" cy="74" r="4" fill="#fff"/>
  <circle cx="126" cy="74" r="4" fill="#fff"/>
  <path d="M78 104 L100 116 L122 104" stroke="#FFD54F" stroke-width="3" fill="none" stroke-linecap="round"/>
  <path d="M100 60 L78 96 M100 60 L122 96" stroke="#7C4DFF" stroke-width="2" opacity="0.7"/>
  <path d="M50 120 L70 140 M150 120 L130 140" stroke="#B39DDB" stroke-width="3" stroke-linecap="round"/>
</svg>
