<svg xmlns="http://www.w3.org/2000/svg" viewBox="-32 -32 64 64">
  <!-- Gull-Wing Divebomber — Paper Planes: Origami Elite. Anchor = flight center (0,0), nose up. -->
  <defs><clipPath id="body"><path d="M 0 -20 L 6 -8 L 14 0 L 26 12 L 22 16 L 4 10 L 0 16 L -4 10 L -22 16 L -26 12 L -14 0 L -6 -8 Z"/></clipPath></defs>
  <path d="M 0 -20 L 6 -8 L 14 0 L 26 12 L 22 16 L 4 10 L 0 16 L -4 10 L -22 16 L -26 12 L -14 0 L -6 -8 Z" fill="#8D6E63" stroke="#4E342E" stroke-width="1.5" stroke-linejoin="round"/>
  <g clip-path="url(#body)">
    <rect x="0" y="-32" width="32" height="64" fill="rgba(0,0,0,0.14)"/>
    <line x1="0" y1="-24" x2="0" y2="24" stroke="rgba(255,255,255,0.55)" stroke-width="1.4"/>
    <line x1="0" y1="-6" x2="-18" y2="12" stroke="rgba(0,0,0,0.22)" stroke-width="1"/>
    <line x1="0" y1="-6" x2="18" y2="12" stroke="rgba(0,0,0,0.22)" stroke-width="1"/>
  </g>
</svg>