<svg xmlns="http://www.w3.org/2000/svg" viewBox="-32 -32 64 64">
  <!-- Green Viper (player vessel) — Paper Planes: Origami Elite. Anchor = flight center, nose up. -->
  <defs><clipPath id="body"><path d="M 0 -30 L 5 -20 L 7 -8 L 28 16 L 24 22 L 8 24 L 4 18 L 0 26 L -4 18 L -8 24 L -24 22 L -28 16 L -7 -8 L -5 -20 Z"/></clipPath></defs>
  <path d="M 0 -30 L 5 -20 L 7 -8 L 28 16 L 24 22 L 8 24 L 4 18 L 0 26 L -4 18 L -8 24 L -24 22 L -28 16 L -7 -8 L -5 -20 Z" fill="#2E7D32" stroke="#1B5E20" stroke-width="1.5" stroke-linejoin="round"/>
  <g clip-path="url(#body)">
    <rect x="0" y="-32" width="32" height="64" fill="rgba(0,0,0,0.12)"/>
    <line x1="0" y1="-28" x2="0" y2="22" stroke="rgba(255,255,255,0.5)" stroke-width="1.4"/>
    <line x1="-6" y1="0" x2="-22" y2="16" stroke="rgba(0,0,0,0.2)" stroke-width="1"/>
    <line x1="6" y1="0" x2="22" y2="16" stroke="rgba(0,0,0,0.2)" stroke-width="1"/>
    <path d="M 0 -24 L 3 -12 L 0 -8 L -3 -12 Z" fill="rgba(255,255,255,0.45)"/>
  </g>
  <circle cx="-2" cy="21" r="2" fill="#FFD54F" opacity="0.7"/>
  <circle cx="2" cy="21" r="2" fill="#FFD54F" opacity="0.7"/>
</svg>